# xmcd CD database file
#
# Track frame offsets:
#	150
#	2918
#	23879
#	55662
#	86372
#	101002
#	124261
#	139936
#
# Disc length: 2243 seconds
#
# Revision: 0
# Processed by: cddbd v1.5.1PL0 Copyright (c) Steve Scherf et al.
# Submitted via: CDex 1.51
#
DISCID=6208c108
DTITLE=Fragile Online - Shinsekai
DYEAR=1900
DGENRE=Progressive Rock
TTITLE0=I Talk to the Door
TTITLE1=1000 Days Before part?
TTITLE2=Shinsekai
TTITLE3=OCAT
TTITLE4=All or Nothing
TTITLE5=Riviere of Life part?
TTITLE6=Riviere of Life part?
TTITLE7=Nishinari Skidrow
EXTD=
EXTT0=
EXTT1=
EXTT2=
EXTT3=
EXTT4=
EXTT5=
EXTT6=
EXTT7=
PLAYORDER=
